<svg width="263" height="100" viewBox="0 0 263 100" fill="none" xmlns="http://www.w3.org/2000/svg">
<g filter="url(#filter0_d_776_1555)">
<path d="M69.1763 5.3999H77.0963V33.3999H69.1763V5.3999ZM58.3763 33.3999H50.4563V5.3999H58.3763V33.3999ZM69.7363 22.4799H57.8163V15.9199H69.7363V22.4799ZM95.5125 33.3999V29.3599L94.9925 28.3599V20.9199C94.9925 19.7199 94.6192 18.7999 93.8725 18.1599C93.1525 17.4932 91.9925 17.1599 90.3925 17.1599C89.3525 17.1599 88.2992 17.3332 87.2325 17.6799C86.1658 17.9999 85.2592 18.4532 84.5125 19.0399L81.9525 13.8799C83.1792 13.0799 84.6458 12.4666 86.3525 12.0399C88.0858 11.5866 89.8058 11.3599 91.5125 11.3599C95.0325 11.3599 97.7525 12.1732 99.6725 13.7999C101.619 15.3999 102.593 17.9199 102.593 21.3599V33.3999H95.5125ZM89.1125 33.7599C87.3792 33.7599 85.9125 33.4666 84.7125 32.8799C83.5125 32.2932 82.5925 31.4932 81.9525 30.4799C81.3392 29.4666 81.0325 28.3332 81.0325 27.0799C81.0325 25.7466 81.3658 24.5999 82.0325 23.6399C82.7258 22.6532 83.7792 21.9066 85.1925 21.3999C86.6058 20.8666 88.4325 20.5999 90.6725 20.5999H95.7925V24.5599H91.7125C90.4858 24.5599 89.6192 24.7599 89.1125 25.1599C88.6325 25.5599 88.3925 26.0932 88.3925 26.7599C88.3925 27.4266 88.6458 27.9599 89.1525 28.3599C89.6592 28.7599 90.3525 28.9599 91.2325 28.9599C92.0592 28.9599 92.8058 28.7599 93.4725 28.3599C94.1658 27.9332 94.6725 27.2932 94.9925 26.4399L96.0325 29.2399C95.6325 30.7332 94.8458 31.8666 93.6725 32.6399C92.5258 33.3866 91.0058 33.7599 89.1125 33.7599ZM120.885 25.3999C120.138 25.8532 119.271 26.2266 118.285 26.5199C117.298 26.7866 116.151 26.9199 114.845 26.9199C111.831 26.9199 109.551 26.2532 108.005 24.9199C106.485 23.5599 105.725 21.3999 105.725 18.4399V11.7199H113.325V17.9199C113.325 19.1466 113.605 20.0132 114.165 20.5199C114.725 21.0266 115.538 21.2799 116.605 21.2799C117.431 21.2799 118.191 21.1866 118.885 20.9999C119.605 20.7866 120.258 20.5066 120.845 20.1599L120.885 25.3999ZM120.365 33.3999V11.7199H127.925V33.3999H120.365ZM145.903 33.3999V29.3599L145.383 28.3599V20.9199C145.383 19.7199 145.01 18.7999 144.263 18.1599C143.543 17.4932 142.383 17.1599 140.783 17.1599C139.743 17.1599 138.69 17.3332 137.623 17.6799C136.556 17.9999 135.65 18.4532 134.903 19.0399L132.343 13.8799C133.57 13.0799 135.036 12.4666 136.743 12.0399C138.476 11.5866 140.196 11.3599 141.903 11.3599C145.423 11.3599 148.143 12.1732 150.063 13.7999C152.01 15.3999 152.983 17.9199 152.983 21.3599V33.3999H145.903ZM139.503 33.7599C137.77 33.7599 136.303 33.4666 135.103 32.8799C133.903 32.2932 132.983 31.4932 132.343 30.4799C131.73 29.4666 131.423 28.3332 131.423 27.0799C131.423 25.7466 131.756 24.5999 132.423 23.6399C133.116 22.6532 134.17 21.9066 135.583 21.3999C136.996 20.8666 138.823 20.5999 141.063 20.5999H146.183V24.5599H142.103C140.876 24.5599 140.01 24.7599 139.503 25.1599C139.023 25.5599 138.783 26.0932 138.783 26.7599C138.783 27.4266 139.036 27.9599 139.543 28.3599C140.05 28.7599 140.743 28.9599 141.623 28.9599C142.45 28.9599 143.196 28.7599 143.863 28.3599C144.556 27.9332 145.063 27.2932 145.383 26.4399L146.423 29.2399C146.023 30.7332 145.236 31.8666 144.063 32.6399C142.916 33.3866 141.396 33.7599 139.503 33.7599ZM162.395 33.3999V16.0799L164.035 17.7599H155.395V11.7199H176.915V17.7599H168.275L169.955 16.0799V33.3999H162.395ZM192.58 18.4399C195.46 18.4666 197.66 19.1066 199.18 20.3599C200.7 21.6132 201.46 23.3999 201.46 25.7199C201.46 28.1199 200.58 30.0132 198.82 31.3999C197.087 32.7599 194.687 33.4266 191.62 33.3999H179.86V11.7199H187.42V18.4399H192.58ZM190.86 28.1999C191.767 28.1999 192.473 27.9866 192.98 27.5599C193.487 27.1332 193.74 26.4799 193.74 25.5999C193.74 24.6932 193.487 24.0532 192.98 23.6799C192.5 23.3066 191.793 23.1066 190.86 23.0799H187.42V28.1599L190.86 28.1999Z" fill="white"/>
</g>
<g filter="url(#filter1_d_776_1555)">
<path d="M51.9176 80V58.32H74.3176V80H66.7576V62.72L68.4376 64.36H57.8376L59.4776 62.72V80H51.9176ZM90.1757 80.36C87.8024 80.36 85.6957 79.88 83.8557 78.92C82.0157 77.96 80.5624 76.64 79.4957 74.96C78.4557 73.2533 77.9357 71.3067 77.9357 69.12C77.9357 66.9333 78.4557 65 79.4957 63.32C80.5624 61.64 82.0157 60.3333 83.8557 59.4C85.6957 58.44 87.8024 57.96 90.1757 57.96C92.5491 57.96 94.6557 58.44 96.4957 59.4C98.3624 60.3333 99.8157 61.64 100.856 63.32C101.896 65 102.416 66.9333 102.416 69.12C102.416 71.3067 101.896 73.2533 100.856 74.96C99.8157 76.64 98.3624 77.96 96.4957 78.92C94.6557 79.88 92.5491 80.36 90.1757 80.36ZM90.1757 74.32C91.0557 74.32 91.8291 74.12 92.4957 73.72C93.1891 73.32 93.7357 72.7333 94.1357 71.96C94.5357 71.16 94.7357 70.2133 94.7357 69.12C94.7357 68.0267 94.5357 67.1067 94.1357 66.36C93.7357 65.5867 93.1891 65 92.4957 64.6C91.8291 64.2 91.0557 64 90.1757 64C89.3224 64 88.5491 64.2 87.8557 64.6C87.1891 65 86.6424 65.5867 86.2157 66.36C85.8157 67.1067 85.6157 68.0267 85.6157 69.12C85.6157 70.2133 85.8157 71.16 86.2157 71.96C86.6424 72.7333 87.1891 73.32 87.8557 73.72C88.5491 74.12 89.3224 74.32 90.1757 74.32ZM121.18 80L114.58 69.88L120.7 66.28L130.14 80H121.18ZM105.98 80V58.32H113.58V80H105.98ZM111.34 72.28V66.32H119.18V72.28H111.34ZM121.46 70L114.34 69.28L121.62 58.32H129.66L121.46 70ZM135.449 88.12C134.302 88.12 133.142 87.9333 131.969 87.56C130.822 87.2133 129.889 86.7467 129.169 86.16L131.809 80.84C132.262 81.24 132.782 81.5467 133.369 81.76C133.982 82 134.582 82.12 135.169 82.12C135.996 82.12 136.649 81.9333 137.129 81.56C137.609 81.1867 138.022 80.6 138.369 79.8L139.369 77.28L139.969 76.52L147.329 58.32H154.569L145.209 80.88C144.462 82.7467 143.596 84.2 142.609 85.24C141.649 86.3067 140.569 87.0533 139.369 87.48C138.196 87.9067 136.889 88.12 135.449 88.12ZM138.409 80.92L128.849 58.32H136.649L143.689 75.84L138.409 80.92ZM157.035 80V58.32H179.435V80H171.875V62.72L173.555 64.36H162.955L164.595 62.72V80H157.035ZM199.813 80L193.213 69.88L199.333 66.28L208.773 80H199.813ZM184.613 80V58.32H192.213V80H184.613ZM189.973 72.28V66.32H197.813V72.28H189.973ZM200.093 70L192.973 69.28L200.253 58.32H208.293L200.093 70ZM211.293 80V58.32H218.853V69.68L227.933 58.32H234.933V80H227.333V68.6L218.333 80H211.293Z" fill="white"/>
</g>
<defs>
<filter id="filter0_d_776_1555" x="44.1561" y="0.0999022" width="167.604" height="44.9601" filterUnits="userSpaceOnUse" color-interpolation-filters="sRGB">
<feFlood flood-opacity="0" result="BackgroundImageFix"/>
<feColorMatrix in="SourceAlpha" type="matrix" values="0 0 0 0 0 0 0 0 0 0 0 0 0 0 0 0 0 0 127 0" result="hardAlpha"/>
<feOffset dx="2" dy="3"/>
<feGaussianBlur stdDeviation="4.15"/>
<feComposite in2="hardAlpha" operator="out"/>
<feColorMatrix type="matrix" values="0 0 0 0 0 0 0 0 0 0 0 0 0 0 0 0 0 0 0.25 0"/>
<feBlend mode="normal" in2="BackgroundImageFix" result="effect1_dropShadow_776_1555"/>
<feBlend mode="normal" in="SourceGraphic" in2="effect1_dropShadow_776_1555" result="shape"/>
</filter>
<filter id="filter1_d_776_1555" x="45.618" y="52.66" width="199.615" height="46.7602" filterUnits="userSpaceOnUse" color-interpolation-filters="sRGB">
<feFlood flood-opacity="0" result="BackgroundImageFix"/>
<feColorMatrix in="SourceAlpha" type="matrix" values="0 0 0 0 0 0 0 0 0 0 0 0 0 0 0 0 0 0 127 0" result="hardAlpha"/>
<feOffset dx="2" dy="3"/>
<feGaussianBlur stdDeviation="4.15"/>
<feComposite in2="hardAlpha" operator="out"/>
<feColorMatrix type="matrix" values="0 0 0 0 0 0 0 0 0 0 0 0 0 0 0 0 0 0 0.25 0"/>
<feBlend mode="normal" in2="BackgroundImageFix" result="effect1_dropShadow_776_1555"/>
<feBlend mode="normal" in="SourceGraphic" in2="effect1_dropShadow_776_1555" result="shape"/>
</filter>
</defs>
</svg>
