<svg width="402" height="152" viewBox="0 0 402 152" fill="none" xmlns="http://www.w3.org/2000/svg">
<g filter="url(#filter0_f_773_1552)">
<rect x="13" y="13" width="376" height="126.4" rx="21" fill="url(#paint0_linear_773_1552)"/>
<path d="M82.1763 33.3999H90.0963V61.3999H82.1763V33.3999ZM71.3763 61.3999H63.4563V33.3999H71.3763V61.3999ZM82.7363 50.4799H70.8163V43.9199H82.7363V50.4799ZM108.513 61.3999V57.3599L107.993 56.3599V48.9199C107.993 47.7199 107.619 46.7999 106.873 46.1599C106.153 45.4932 104.993 45.1599 103.393 45.1599C102.353 45.1599 101.299 45.3332 100.233 45.6799C99.1658 45.9999 98.2592 46.4532 97.5125 47.0399L94.9525 41.8799C96.1792 41.0799 97.6458 40.4666 99.3525 40.0399C101.086 39.5866 102.806 39.3599 104.513 39.3599C108.033 39.3599 110.753 40.1732 112.673 41.7999C114.619 43.3999 115.593 45.9199 115.593 49.3599V61.3999H108.513ZM102.113 61.7599C100.379 61.7599 98.9125 61.4666 97.7125 60.8799C96.5125 60.2932 95.5925 59.4932 94.9525 58.4799C94.3392 57.4666 94.0325 56.3332 94.0325 55.0799C94.0325 53.7466 94.3658 52.5999 95.0325 51.6399C95.7258 50.6532 96.7792 49.9066 98.1925 49.3999C99.6058 48.8666 101.433 48.5999 103.673 48.5999H108.793V52.5599H104.713C103.486 52.5599 102.619 52.7599 102.113 53.1599C101.633 53.5599 101.393 54.0932 101.393 54.7599C101.393 55.4266 101.646 55.9599 102.153 56.3599C102.659 56.7599 103.353 56.9599 104.233 56.9599C105.059 56.9599 105.806 56.7599 106.473 56.3599C107.166 55.9332 107.673 55.2932 107.993 54.4399L109.033 57.2399C108.633 58.7332 107.846 59.8666 106.673 60.6399C105.526 61.3866 104.006 61.7599 102.113 61.7599ZM133.885 53.3999C133.138 53.8532 132.271 54.2266 131.285 54.5199C130.298 54.7866 129.151 54.9199 127.845 54.9199C124.831 54.9199 122.551 54.2532 121.005 52.9199C119.485 51.5599 118.725 49.3999 118.725 46.4399V39.7199H126.325V45.9199C126.325 47.1466 126.605 48.0132 127.165 48.5199C127.725 49.0266 128.538 49.2799 129.605 49.2799C130.431 49.2799 131.191 49.1866 131.885 48.9999C132.605 48.7866 133.258 48.5066 133.845 48.1599L133.885 53.3999ZM133.365 61.3999V39.7199H140.925V61.3999H133.365ZM158.903 61.3999V57.3599L158.383 56.3599V48.9199C158.383 47.7199 158.01 46.7999 157.263 46.1599C156.543 45.4932 155.383 45.1599 153.783 45.1599C152.743 45.1599 151.69 45.3332 150.623 45.6799C149.556 45.9999 148.65 46.4532 147.903 47.0399L145.343 41.8799C146.57 41.0799 148.036 40.4666 149.743 40.0399C151.476 39.5866 153.196 39.3599 154.903 39.3599C158.423 39.3599 161.143 40.1732 163.063 41.7999C165.01 43.3999 165.983 45.9199 165.983 49.3599V61.3999H158.903ZM152.503 61.7599C150.77 61.7599 149.303 61.4666 148.103 60.8799C146.903 60.2932 145.983 59.4932 145.343 58.4799C144.73 57.4666 144.423 56.3332 144.423 55.0799C144.423 53.7466 144.756 52.5999 145.423 51.6399C146.116 50.6532 147.17 49.9066 148.583 49.3999C149.996 48.8666 151.823 48.5999 154.063 48.5999H159.183V52.5599H155.103C153.876 52.5599 153.01 52.7599 152.503 53.1599C152.023 53.5599 151.783 54.0932 151.783 54.7599C151.783 55.4266 152.036 55.9599 152.543 56.3599C153.05 56.7599 153.743 56.9599 154.623 56.9599C155.45 56.9599 156.196 56.7599 156.863 56.3599C157.556 55.9332 158.063 55.2932 158.383 54.4399L159.423 57.2399C159.023 58.7332 158.236 59.8666 157.063 60.6399C155.916 61.3866 154.396 61.7599 152.503 61.7599ZM175.395 61.3999V44.0799L177.035 45.7599H168.395V39.7199H189.915V45.7599H181.275L182.955 44.0799V61.3999H175.395ZM205.58 46.4399C208.46 46.4666 210.66 47.1066 212.18 48.3599C213.7 49.6132 214.46 51.3999 214.46 53.7199C214.46 56.1199 213.58 58.0132 211.82 59.3999C210.087 60.7599 207.687 61.4266 204.62 61.3999H192.86V39.7199H200.42V46.4399H205.58ZM203.86 56.1999C204.767 56.1999 205.473 55.9866 205.98 55.5599C206.487 55.1332 206.74 54.4799 206.74 53.5999C206.74 52.6932 206.487 52.0532 205.98 51.6799C205.5 51.3066 204.793 51.1066 203.86 51.0799H200.42V56.1599L203.86 56.1999Z" fill="white"/>
<path d="M64.9176 108V86.32H87.3176V108H79.7576V90.72L81.4376 92.36H70.8376L72.4776 90.72V108H64.9176ZM103.176 108.36C100.802 108.36 98.6957 107.88 96.8557 106.92C95.0157 105.96 93.5624 104.64 92.4957 102.96C91.4557 101.253 90.9357 99.3067 90.9357 97.12C90.9357 94.9333 91.4557 93 92.4957 91.32C93.5624 89.64 95.0157 88.3333 96.8557 87.4C98.6957 86.44 100.802 85.96 103.176 85.96C105.549 85.96 107.656 86.44 109.496 87.4C111.362 88.3333 112.816 89.64 113.856 91.32C114.896 93 115.416 94.9333 115.416 97.12C115.416 99.3067 114.896 101.253 113.856 102.96C112.816 104.64 111.362 105.96 109.496 106.92C107.656 107.88 105.549 108.36 103.176 108.36ZM103.176 102.32C104.056 102.32 104.829 102.12 105.496 101.72C106.189 101.32 106.736 100.733 107.136 99.96C107.536 99.16 107.736 98.2133 107.736 97.12C107.736 96.0267 107.536 95.1067 107.136 94.36C106.736 93.5867 106.189 93 105.496 92.6C104.829 92.2 104.056 92 103.176 92C102.322 92 101.549 92.2 100.856 92.6C100.189 93 99.6424 93.5867 99.2157 94.36C98.8157 95.1067 98.6157 96.0267 98.6157 97.12C98.6157 98.2133 98.8157 99.16 99.2157 99.96C99.6424 100.733 100.189 101.32 100.856 101.72C101.549 102.12 102.322 102.32 103.176 102.32ZM134.18 108L127.58 97.88L133.7 94.28L143.14 108H134.18ZM118.98 108V86.32H126.58V108H118.98ZM124.34 100.28V94.32H132.18V100.28H124.34ZM134.46 98L127.34 97.28L134.62 86.32H142.66L134.46 98ZM148.449 116.12C147.302 116.12 146.142 115.933 144.969 115.56C143.822 115.213 142.889 114.747 142.169 114.16L144.809 108.84C145.262 109.24 145.782 109.547 146.369 109.76C146.982 110 147.582 110.12 148.169 110.12C148.996 110.12 149.649 109.933 150.129 109.56C150.609 109.187 151.022 108.6 151.369 107.8L152.369 105.28L152.969 104.52L160.329 86.32H167.569L158.209 108.88C157.462 110.747 156.596 112.2 155.609 113.24C154.649 114.307 153.569 115.053 152.369 115.48C151.196 115.907 149.889 116.12 148.449 116.12ZM151.409 108.92L141.849 86.32H149.649L156.689 103.84L151.409 108.92ZM170.035 108V86.32H192.435V108H184.875V90.72L186.555 92.36H175.955L177.595 90.72V108H170.035ZM212.813 108L206.213 97.88L212.333 94.28L221.773 108H212.813ZM197.613 108V86.32H205.213V108H197.613ZM202.973 100.28V94.32H210.813V100.28H202.973ZM213.093 98L205.973 97.28L213.253 86.32H221.293L213.093 98ZM224.293 108V86.32H231.853V97.68L240.933 86.32H247.933V108H240.333V96.6L231.333 108H224.293Z" fill="white"/>
<path d="M342.675 73.075C344.042 71.7081 344.042 69.4921 342.675 68.1252L320.401 45.8514C319.034 44.4845 316.818 44.4845 315.451 45.8514C314.084 47.2182 314.084 49.4343 315.451 50.8011L335.25 70.6001L315.451 90.3991C314.084 91.7659 314.084 93.982 315.451 95.3488C316.818 96.7157 319.034 96.7157 320.401 95.3488L342.675 73.075ZM269 74.1001H340.2V67.1001H269V74.1001Z" fill="white"/>
</g>
<rect x="13" y="13" width="376" height="126.4" rx="21" fill="url(#paint1_linear_773_1552)"/>
<g filter="url(#filter1_d_773_1552)">
<path d="M82.1763 33.3999H90.0963V61.3999H82.1763V33.3999ZM71.3763 61.3999H63.4563V33.3999H71.3763V61.3999ZM82.7363 50.4799H70.8163V43.9199H82.7363V50.4799ZM108.513 61.3999V57.3599L107.993 56.3599V48.9199C107.993 47.7199 107.619 46.7999 106.873 46.1599C106.153 45.4932 104.993 45.1599 103.393 45.1599C102.353 45.1599 101.299 45.3332 100.233 45.6799C99.1658 45.9999 98.2592 46.4532 97.5125 47.0399L94.9525 41.8799C96.1792 41.0799 97.6458 40.4666 99.3525 40.0399C101.086 39.5866 102.806 39.3599 104.513 39.3599C108.033 39.3599 110.753 40.1732 112.673 41.7999C114.619 43.3999 115.593 45.9199 115.593 49.3599V61.3999H108.513ZM102.113 61.7599C100.379 61.7599 98.9125 61.4666 97.7125 60.8799C96.5125 60.2932 95.5925 59.4932 94.9525 58.4799C94.3392 57.4666 94.0325 56.3332 94.0325 55.0799C94.0325 53.7466 94.3658 52.5999 95.0325 51.6399C95.7258 50.6532 96.7792 49.9066 98.1925 49.3999C99.6058 48.8666 101.433 48.5999 103.673 48.5999H108.793V52.5599H104.713C103.486 52.5599 102.619 52.7599 102.113 53.1599C101.633 53.5599 101.393 54.0932 101.393 54.7599C101.393 55.4266 101.646 55.9599 102.153 56.3599C102.659 56.7599 103.353 56.9599 104.233 56.9599C105.059 56.9599 105.806 56.7599 106.473 56.3599C107.166 55.9332 107.673 55.2932 107.993 54.4399L109.033 57.2399C108.633 58.7332 107.846 59.8666 106.673 60.6399C105.526 61.3866 104.006 61.7599 102.113 61.7599ZM133.885 53.3999C133.138 53.8532 132.271 54.2266 131.285 54.5199C130.298 54.7866 129.151 54.9199 127.845 54.9199C124.831 54.9199 122.551 54.2532 121.005 52.9199C119.485 51.5599 118.725 49.3999 118.725 46.4399V39.7199H126.325V45.9199C126.325 47.1466 126.605 48.0132 127.165 48.5199C127.725 49.0266 128.538 49.2799 129.605 49.2799C130.431 49.2799 131.191 49.1866 131.885 48.9999C132.605 48.7866 133.258 48.5066 133.845 48.1599L133.885 53.3999ZM133.365 61.3999V39.7199H140.925V61.3999H133.365ZM158.903 61.3999V57.3599L158.383 56.3599V48.9199C158.383 47.7199 158.01 46.7999 157.263 46.1599C156.543 45.4932 155.383 45.1599 153.783 45.1599C152.743 45.1599 151.69 45.3332 150.623 45.6799C149.556 45.9999 148.65 46.4532 147.903 47.0399L145.343 41.8799C146.57 41.0799 148.036 40.4666 149.743 40.0399C151.476 39.5866 153.196 39.3599 154.903 39.3599C158.423 39.3599 161.143 40.1732 163.063 41.7999C165.01 43.3999 165.983 45.9199 165.983 49.3599V61.3999H158.903ZM152.503 61.7599C150.77 61.7599 149.303 61.4666 148.103 60.8799C146.903 60.2932 145.983 59.4932 145.343 58.4799C144.73 57.4666 144.423 56.3332 144.423 55.0799C144.423 53.7466 144.756 52.5999 145.423 51.6399C146.116 50.6532 147.17 49.9066 148.583 49.3999C149.996 48.8666 151.823 48.5999 154.063 48.5999H159.183V52.5599H155.103C153.876 52.5599 153.01 52.7599 152.503 53.1599C152.023 53.5599 151.783 54.0932 151.783 54.7599C151.783 55.4266 152.036 55.9599 152.543 56.3599C153.05 56.7599 153.743 56.9599 154.623 56.9599C155.45 56.9599 156.196 56.7599 156.863 56.3599C157.556 55.9332 158.063 55.2932 158.383 54.4399L159.423 57.2399C159.023 58.7332 158.236 59.8666 157.063 60.6399C155.916 61.3866 154.396 61.7599 152.503 61.7599ZM175.395 61.3999V44.0799L177.035 45.7599H168.395V39.7199H189.915V45.7599H181.275L182.955 44.0799V61.3999H175.395ZM205.58 46.4399C208.46 46.4666 210.66 47.1066 212.18 48.3599C213.7 49.6132 214.46 51.3999 214.46 53.7199C214.46 56.1199 213.58 58.0132 211.82 59.3999C210.087 60.7599 207.687 61.4266 204.62 61.3999H192.86V39.7199H200.42V46.4399H205.58ZM203.86 56.1999C204.767 56.1999 205.473 55.9866 205.98 55.5599C206.487 55.1332 206.74 54.4799 206.74 53.5999C206.74 52.6932 206.487 52.0532 205.98 51.6799C205.5 51.3066 204.793 51.1066 203.86 51.0799H200.42V56.1599L203.86 56.1999Z" fill="white"/>
</g>
<g filter="url(#filter2_d_773_1552)">
<path d="M64.9176 108V86.32H87.3176V108H79.7576V90.72L81.4376 92.36H70.8376L72.4776 90.72V108H64.9176ZM103.176 108.36C100.802 108.36 98.6957 107.88 96.8557 106.92C95.0157 105.96 93.5624 104.64 92.4957 102.96C91.4557 101.253 90.9357 99.3067 90.9357 97.12C90.9357 94.9333 91.4557 93 92.4957 91.32C93.5624 89.64 95.0157 88.3333 96.8557 87.4C98.6957 86.44 100.802 85.96 103.176 85.96C105.549 85.96 107.656 86.44 109.496 87.4C111.362 88.3333 112.816 89.64 113.856 91.32C114.896 93 115.416 94.9333 115.416 97.12C115.416 99.3067 114.896 101.253 113.856 102.96C112.816 104.64 111.362 105.96 109.496 106.92C107.656 107.88 105.549 108.36 103.176 108.36ZM103.176 102.32C104.056 102.32 104.829 102.12 105.496 101.72C106.189 101.32 106.736 100.733 107.136 99.96C107.536 99.16 107.736 98.2133 107.736 97.12C107.736 96.0267 107.536 95.1067 107.136 94.36C106.736 93.5867 106.189 93 105.496 92.6C104.829 92.2 104.056 92 103.176 92C102.322 92 101.549 92.2 100.856 92.6C100.189 93 99.6424 93.5867 99.2157 94.36C98.8157 95.1067 98.6157 96.0267 98.6157 97.12C98.6157 98.2133 98.8157 99.16 99.2157 99.96C99.6424 100.733 100.189 101.32 100.856 101.72C101.549 102.12 102.322 102.32 103.176 102.32ZM134.18 108L127.58 97.88L133.7 94.28L143.14 108H134.18ZM118.98 108V86.32H126.58V108H118.98ZM124.34 100.28V94.32H132.18V100.28H124.34ZM134.46 98L127.34 97.28L134.62 86.32H142.66L134.46 98ZM148.449 116.12C147.302 116.12 146.142 115.933 144.969 115.56C143.822 115.213 142.889 114.747 142.169 114.16L144.809 108.84C145.262 109.24 145.782 109.547 146.369 109.76C146.982 110 147.582 110.12 148.169 110.12C148.996 110.12 149.649 109.933 150.129 109.56C150.609 109.187 151.022 108.6 151.369 107.8L152.369 105.28L152.969 104.52L160.329 86.32H167.569L158.209 108.88C157.462 110.747 156.596 112.2 155.609 113.24C154.649 114.307 153.569 115.053 152.369 115.48C151.196 115.907 149.889 116.12 148.449 116.12ZM151.409 108.92L141.849 86.32H149.649L156.689 103.84L151.409 108.92ZM170.035 108V86.32H192.435V108H184.875V90.72L186.555 92.36H175.955L177.595 90.72V108H170.035ZM212.813 108L206.213 97.88L212.333 94.28L221.773 108H212.813ZM197.613 108V86.32H205.213V108H197.613ZM202.973 100.28V94.32H210.813V100.28H202.973ZM213.093 98L205.973 97.28L213.253 86.32H221.293L213.093 98ZM224.293 108V86.32H231.853V97.68L240.933 86.32H247.933V108H240.333V96.6L231.333 108H224.293Z" fill="white"/>
</g>
<g filter="url(#filter3_d_773_1552)">
<path d="M342.675 73.075C344.042 71.7081 344.042 69.4921 342.675 68.1252L320.401 45.8514C319.034 44.4845 316.818 44.4845 315.451 45.8514C314.084 47.2182 314.084 49.4343 315.451 50.8011L335.25 70.6001L315.451 90.3991C314.084 91.7659 314.084 93.982 315.451 95.3488C316.818 96.7157 319.034 96.7157 320.401 95.3488L342.675 73.075ZM269 74.1001H340.2V67.1001H269V74.1001Z" fill="white"/>
</g>
<rect x="266" y="67.2109" width="69" height="7" rx="3.5" fill="white"/>
<defs>
<filter id="filter0_f_773_1552" x="0.6" y="0.6" width="400.8" height="151.2" filterUnits="userSpaceOnUse" color-interpolation-filters="sRGB">
<feFlood flood-opacity="0" result="BackgroundImageFix"/>
<feBlend mode="normal" in="SourceGraphic" in2="BackgroundImageFix" result="shape"/>
<feGaussianBlur stdDeviation="6.2" result="effect1_foregroundBlur_773_1552"/>
</filter>
<filter id="filter1_d_773_1552" x="57.1561" y="28.0999" width="167.604" height="44.9601" filterUnits="userSpaceOnUse" color-interpolation-filters="sRGB">
<feFlood flood-opacity="0" result="BackgroundImageFix"/>
<feColorMatrix in="SourceAlpha" type="matrix" values="0 0 0 0 0 0 0 0 0 0 0 0 0 0 0 0 0 0 127 0" result="hardAlpha"/>
<feOffset dx="2" dy="3"/>
<feGaussianBlur stdDeviation="4.15"/>
<feComposite in2="hardAlpha" operator="out"/>
<feColorMatrix type="matrix" values="0 0 0 0 0 0 0 0 0 0 0 0 0 0 0 0 0 0 0.25 0"/>
<feBlend mode="normal" in2="BackgroundImageFix" result="effect1_dropShadow_773_1552"/>
<feBlend mode="normal" in="SourceGraphic" in2="effect1_dropShadow_773_1552" result="shape"/>
</filter>
<filter id="filter2_d_773_1552" x="58.618" y="80.66" width="199.615" height="46.7602" filterUnits="userSpaceOnUse" color-interpolation-filters="sRGB">
<feFlood flood-opacity="0" result="BackgroundImageFix"/>
<feColorMatrix in="SourceAlpha" type="matrix" values="0 0 0 0 0 0 0 0 0 0 0 0 0 0 0 0 0 0 127 0" result="hardAlpha"/>
<feOffset dx="2" dy="3"/>
<feGaussianBlur stdDeviation="4.15"/>
<feComposite in2="hardAlpha" operator="out"/>
<feColorMatrix type="matrix" values="0 0 0 0 0 0 0 0 0 0 0 0 0 0 0 0 0 0 0.25 0"/>
<feBlend mode="normal" in2="BackgroundImageFix" result="effect1_dropShadow_773_1552"/>
<feBlend mode="normal" in="SourceGraphic" in2="effect1_dropShadow_773_1552" result="shape"/>
</filter>
<filter id="filter3_d_773_1552" x="262.7" y="39.5262" width="91.3002" height="68.1479" filterUnits="userSpaceOnUse" color-interpolation-filters="sRGB">
<feFlood flood-opacity="0" result="BackgroundImageFix"/>
<feColorMatrix in="SourceAlpha" type="matrix" values="0 0 0 0 0 0 0 0 0 0 0 0 0 0 0 0 0 0 127 0" result="hardAlpha"/>
<feOffset dx="2" dy="3"/>
<feGaussianBlur stdDeviation="4.15"/>
<feComposite in2="hardAlpha" operator="out"/>
<feColorMatrix type="matrix" values="0 0 0 0 0 0 0 0 0 0 0 0 0 0 0 0 0 0 0.25 0"/>
<feBlend mode="normal" in2="BackgroundImageFix" result="effect1_dropShadow_773_1552"/>
<feBlend mode="normal" in="SourceGraphic" in2="effect1_dropShadow_773_1552" result="shape"/>
</filter>
<linearGradient id="paint0_linear_773_1552" x1="13" y1="76.2" x2="389" y2="76.2" gradientUnits="userSpaceOnUse">
<stop offset="0.128394" stop-color="#00B9F4"/>
<stop offset="0.445363" stop-color="#0098C8"/>
<stop offset="0.698183" stop-color="#00B9F4"/>
</linearGradient>
<linearGradient id="paint1_linear_773_1552" x1="13" y1="76.2" x2="389" y2="76.2" gradientUnits="userSpaceOnUse">
<stop offset="0.128394" stop-color="#00B9F4"/>
<stop offset="0.445363" stop-color="#0098C8"/>
<stop offset="0.698183" stop-color="#00B9F4"/>
</linearGradient>
</defs>
</svg>
