<svg width="171" height="52" viewBox="0 0 171 52" fill="none" xmlns="http://www.w3.org/2000/svg">
<rect width="170.383" height="52" rx="4" fill="#0098C8"/>
<path d="M28.507 34V17.9H35.43C37.178 17.9 38.5503 18.2527 39.547 18.958C40.5437 19.6633 41.042 20.6907 41.042 22.04C41.042 23.3587 40.5667 24.3707 39.616 25.076C38.6653 25.766 37.4157 26.111 35.867 26.111L36.281 25.421C38.075 25.421 39.4473 25.7813 40.398 26.502C41.364 27.2073 41.847 28.2423 41.847 29.607C41.847 30.987 41.341 32.068 40.329 32.85C39.3323 33.6167 37.845 34 35.867 34H28.507ZM30.784 32.183H35.821C37.0477 32.183 37.9677 31.9607 38.581 31.516C39.2097 31.056 39.524 30.3583 39.524 29.423C39.524 28.4877 39.2097 27.8053 38.581 27.376C37.9677 26.9467 37.0477 26.732 35.821 26.732H30.784V32.183ZM30.784 24.984H35.269C36.3883 24.984 37.2393 24.7617 37.822 24.317C38.42 23.8723 38.719 23.2207 38.719 22.362C38.719 21.488 38.42 20.8287 37.822 20.384C37.2393 19.9393 36.3883 19.717 35.269 19.717H30.784V24.984ZM60.3304 34L55.6154 28.066L57.4324 26.962L62.9294 34H60.3304ZM51.4984 34V21.81H53.7064V34H51.4984ZM53.0394 28.848V26.962H57.0644V28.848H53.0394ZM57.6164 28.158L55.5694 27.882L60.2384 21.81H62.6074L57.6164 28.158ZM72.4949 34V31.424L72.3799 30.941V26.548C72.3799 25.6127 72.1039 24.892 71.5519 24.386C71.0152 23.8647 70.2025 23.604 69.1139 23.604C68.3932 23.604 67.6879 23.7267 66.9979 23.972C66.3079 24.202 65.7252 24.5163 65.2499 24.915L64.3299 23.259C64.9585 22.753 65.7099 22.3697 66.5839 22.109C67.4732 21.833 68.4009 21.695 69.3669 21.695C71.0382 21.695 72.3262 22.1013 73.2309 22.914C74.1355 23.7267 74.5879 24.9687 74.5879 26.64V34H72.4949ZM68.4929 34.138C67.5882 34.138 66.7909 33.9847 66.1009 33.678C65.4262 33.3713 64.9049 32.9497 64.5369 32.413C64.1689 31.861 63.9849 31.24 63.9849 30.55C63.9849 29.8907 64.1382 29.2927 64.4449 28.756C64.7669 28.2193 65.2805 27.79 65.9859 27.468C66.7065 27.146 67.6725 26.985 68.8839 26.985H72.7479V28.572H68.9759C67.8719 28.572 67.1282 28.756 66.7449 29.124C66.3615 29.492 66.1699 29.9367 66.1699 30.458C66.1699 31.056 66.4075 31.539 66.8829 31.907C67.3582 32.2597 68.0175 32.436 68.8609 32.436C69.6889 32.436 70.4095 32.252 71.0229 31.884C71.6515 31.516 72.1039 30.9793 72.3799 30.274L72.8169 31.792C72.5255 32.5127 72.0119 33.0877 71.2759 33.517C70.5399 33.931 69.6122 34.138 68.4929 34.138ZM80.9788 34V23.167L81.5308 23.742H76.5168V21.81H87.6488V23.742H82.6578L83.1868 23.167V34H80.9788ZM97.3816 34V31.424L97.2666 30.941V26.548C97.2666 25.6127 96.9906 24.892 96.4386 24.386C95.9019 23.8647 95.0892 23.604 94.0006 23.604C93.2799 23.604 92.5746 23.7267 91.8846 23.972C91.1946 24.202 90.6119 24.5163 90.1366 24.915L89.2166 23.259C89.8452 22.753 90.5966 22.3697 91.4706 22.109C92.3599 21.833 93.2876 21.695 94.2536 21.695C95.9249 21.695 97.2129 22.1013 98.1176 22.914C99.0222 23.7267 99.4746 24.9687 99.4746 26.64V34H97.3816ZM93.3796 34.138C92.4749 34.138 91.6776 33.9847 90.9876 33.678C90.3129 33.3713 89.7916 32.9497 89.4236 32.413C89.0556 31.861 88.8716 31.24 88.8716 30.55C88.8716 29.8907 89.0249 29.2927 89.3316 28.756C89.6536 28.2193 90.1672 27.79 90.8726 27.468C91.5932 27.146 92.5592 26.985 93.7706 26.985H97.6346V28.572H93.8626C92.7586 28.572 92.0149 28.756 91.6316 29.124C91.2482 29.492 91.0566 29.9367 91.0566 30.458C91.0566 31.056 91.2942 31.539 91.7696 31.907C92.2449 32.2597 92.9042 32.436 93.7476 32.436C94.5756 32.436 95.2962 32.252 95.9096 31.884C96.5382 31.516 96.9906 30.9793 97.2666 30.274L97.7036 31.792C97.4122 32.5127 96.8986 33.0877 96.1626 33.517C95.4266 33.931 94.4989 34.138 93.3796 34.138ZM101.427 33.977L101.565 32.114C101.672 32.1293 101.772 32.1447 101.864 32.16C101.956 32.1753 102.04 32.183 102.117 32.183C102.607 32.183 102.991 32.0143 103.267 31.677C103.558 31.3397 103.773 30.895 103.911 30.343C104.049 29.7757 104.148 29.1393 104.21 28.434C104.271 27.7287 104.317 27.0233 104.348 26.318L104.555 21.81H113.916V34H111.708V23.098L112.237 23.742H105.981L106.487 23.075L106.326 26.456C106.28 27.5293 106.195 28.5337 106.073 29.469C105.95 30.4043 105.758 31.2247 105.498 31.93C105.252 32.6353 104.907 33.1873 104.463 33.586C104.033 33.9847 103.474 34.184 102.784 34.184C102.584 34.184 102.37 34.161 102.14 34.115C101.925 34.0843 101.687 34.0383 101.427 33.977ZM123.406 34.138C122.179 34.138 121.091 33.8697 120.14 33.333C119.189 32.7963 118.438 32.0603 117.886 31.125C117.334 30.1743 117.058 29.101 117.058 27.905C117.058 26.6937 117.334 25.6203 117.886 24.685C118.438 23.7497 119.189 23.0213 120.14 22.5C121.091 21.9633 122.179 21.695 123.406 21.695C124.617 21.695 125.698 21.9633 126.649 22.5C127.615 23.0213 128.366 23.7497 128.903 24.685C129.455 25.605 129.731 26.6783 129.731 27.905C129.731 29.1163 129.455 30.1897 128.903 31.125C128.366 32.0603 127.615 32.7963 126.649 33.333C125.698 33.8697 124.617 34.138 123.406 34.138ZM123.406 32.206C124.188 32.206 124.886 32.0297 125.499 31.677C126.128 31.3243 126.618 30.826 126.971 30.182C127.324 29.5227 127.5 28.7637 127.5 27.905C127.5 27.031 127.324 26.2797 126.971 25.651C126.618 25.007 126.128 24.5087 125.499 24.156C124.886 23.8033 124.188 23.627 123.406 23.627C122.624 23.627 121.926 23.8033 121.313 24.156C120.7 24.5087 120.209 25.007 119.841 25.651C119.473 26.2797 119.289 27.031 119.289 27.905C119.289 28.7637 119.473 29.5227 119.841 30.182C120.209 30.826 120.7 31.3243 121.313 31.677C121.926 32.0297 122.624 32.206 123.406 32.206ZM132.919 34V21.81H141.889V23.742H134.598L135.127 23.236V34H132.919Z" fill="white"/>
</svg>
