<svg width="299" height="44" viewBox="0 0 299 44" fill="none" xmlns="http://www.w3.org/2000/svg">
<rect x="0.277344" y="0.95813" width="298.16" height="42.4106" rx="13" fill="#00C844"/>
<path d="M224.199 30.8038C223.058 30.8038 222.143 31.7188 222.143 32.8601C222.143 33.4054 222.36 33.9284 222.745 34.3141C223.131 34.6997 223.654 34.9163 224.199 34.9163C224.745 34.9163 225.268 34.6997 225.653 34.3141C226.039 33.9284 226.255 33.4054 226.255 32.8601C226.255 32.3147 226.039 31.7917 225.653 31.406C225.268 31.0204 224.745 30.8038 224.199 30.8038ZM207.749 14.3536V16.4099H209.805L213.507 24.2134L212.108 26.7324C211.954 27.0202 211.862 27.3595 211.862 27.7194C211.862 28.2647 212.078 28.7877 212.464 29.1734C212.849 29.559 213.372 29.7756 213.918 29.7756H226.255V27.7194H214.35C214.281 27.7194 214.216 27.6923 214.168 27.6441C214.12 27.5959 214.093 27.5305 214.093 27.4623C214.093 27.4109 214.103 27.3698 214.123 27.339L215.049 25.6631H222.708C223.48 25.6631 224.158 25.2313 224.508 24.6041L228.188 17.9521C228.26 17.7876 228.312 17.6128 228.312 17.438C228.312 17.1653 228.203 16.9038 228.011 16.711C227.818 16.5182 227.556 16.4099 227.284 16.4099H212.077L211.111 14.3536M213.918 30.8038C212.777 30.8038 211.862 31.7188 211.862 32.8601C211.862 33.4054 212.078 33.9284 212.464 34.3141C212.849 34.6997 213.372 34.9163 213.918 34.9163C214.463 34.9163 214.986 34.6997 215.372 34.3141C215.757 33.9284 215.974 33.4054 215.974 32.8601C215.974 32.3147 215.757 31.7917 215.372 31.406C214.986 31.0204 214.463 30.8038 213.918 30.8038Z" fill="#E6E6E6"/>
<path d="M74.714 30.6425V14.5425H81.407C83.109 14.5425 84.443 14.8952 85.409 15.6005C86.3903 16.2905 86.881 17.3102 86.881 18.6595C86.881 19.9935 86.4133 21.0055 85.478 21.6955C84.5427 22.3702 83.316 22.7075 81.798 22.7075L82.189 22.1325C83.983 22.1325 85.3477 22.4852 86.283 23.1905C87.2183 23.8959 87.686 24.9309 87.686 26.2955C87.686 27.6755 87.1953 28.7489 86.214 29.5155C85.248 30.2669 83.7913 30.6425 81.844 30.6425H74.714ZM76.393 29.2855H81.844C83.2087 29.2855 84.2437 29.0325 84.949 28.5265C85.6543 28.0205 86.007 27.2385 86.007 26.1805C86.007 25.1379 85.6543 24.3712 84.949 23.8805C84.2437 23.3899 83.2087 23.1445 81.844 23.1445H76.393V29.2855ZM76.393 21.8335H81.315C82.557 21.8335 83.5077 21.5882 84.167 21.0975C84.8417 20.5915 85.179 19.8479 85.179 18.8665C85.179 17.8852 84.8417 17.1492 84.167 16.6585C83.5077 16.1525 82.557 15.8995 81.315 15.8995H76.393V21.8335ZM106.425 30.6425L101.457 24.6625L102.814 23.8575L108.357 30.6425H106.425ZM97.5701 30.6425V18.5675H99.2031V30.6425H97.5701ZM98.6971 25.2605V23.8575H102.584V25.2605H98.6971ZM102.952 24.7775L101.434 24.5475L106.241 18.5675H108.012L102.952 24.7775ZM115.476 30.7575C114.31 30.7575 113.26 30.4969 112.325 29.9755C111.405 29.4389 110.676 28.7105 110.14 27.7905C109.603 26.8552 109.335 25.7895 109.335 24.5935C109.335 23.3822 109.603 22.3165 110.14 21.3965C110.676 20.4765 111.405 19.7559 112.325 19.2345C113.245 18.7132 114.295 18.4525 115.476 18.4525C116.672 18.4525 117.73 18.7132 118.65 19.2345C119.585 19.7559 120.313 20.4765 120.835 21.3965C121.371 22.3165 121.64 23.3822 121.64 24.5935C121.64 25.7895 121.371 26.8552 120.835 27.7905C120.313 28.7105 119.585 29.4389 118.65 29.9755C117.714 30.4969 116.656 30.7575 115.476 30.7575ZM115.476 29.3085C116.35 29.3085 117.124 29.1169 117.799 28.7335C118.473 28.3349 119.002 27.7829 119.386 27.0775C119.784 26.3569 119.984 25.5289 119.984 24.5935C119.984 23.6429 119.784 22.8149 119.386 22.1095C119.002 21.4042 118.473 20.8599 117.799 20.4765C117.124 20.0779 116.357 19.8785 115.499 19.8785C114.64 19.8785 113.873 20.0779 113.199 20.4765C112.524 20.8599 111.987 21.4042 111.589 22.1095C111.19 22.8149 110.991 23.6429 110.991 24.5935C110.991 25.5289 111.19 26.3569 111.589 27.0775C111.987 27.7829 112.524 28.3349 113.199 28.7335C113.873 29.1169 114.632 29.3085 115.476 29.3085ZM131.363 30.7575C130.32 30.7575 129.377 30.5199 128.534 30.0445C127.69 29.5539 127.016 28.8562 126.51 27.9515C126.019 27.0315 125.774 25.9122 125.774 24.5935C125.774 23.2749 126.019 22.1632 126.51 21.2585C127 20.3385 127.667 19.6409 128.511 19.1655C129.354 18.6902 130.305 18.4525 131.363 18.4525C132.513 18.4525 133.54 18.7132 134.445 19.2345C135.365 19.7405 136.085 20.4612 136.607 21.3965C137.128 22.3165 137.389 23.3822 137.389 24.5935C137.389 25.8202 137.128 26.8935 136.607 27.8135C136.085 28.7335 135.365 29.4542 134.445 29.9755C133.54 30.4969 132.513 30.7575 131.363 30.7575ZM125.13 35.1045V18.5675H126.694V22.2015L126.533 24.6165L126.763 27.0545V35.1045H125.13ZM131.248 29.3085C132.106 29.3085 132.873 29.1169 133.548 28.7335C134.222 28.3349 134.759 27.7829 135.158 27.0775C135.556 26.3569 135.756 25.5289 135.756 24.5935C135.756 23.6582 135.556 22.8379 135.158 22.1325C134.759 21.4272 134.222 20.8752 133.548 20.4765C132.873 20.0779 132.106 19.8785 131.248 19.8785C130.389 19.8785 129.615 20.0779 128.925 20.4765C128.25 20.8752 127.713 21.4272 127.315 22.1325C126.931 22.8379 126.74 23.6582 126.74 24.5935C126.74 25.5289 126.931 26.3569 127.315 27.0775C127.713 27.7829 128.25 28.3349 128.925 28.7335C129.615 29.1169 130.389 29.3085 131.248 29.3085ZM144.05 30.7805C143.176 30.7805 142.31 30.6579 141.451 30.4125C140.593 30.1672 139.834 29.7915 139.174 29.2855L139.703 28.0665C140.286 28.4959 140.961 28.8255 141.727 29.0555C142.494 29.2702 143.253 29.3775 144.004 29.3775C144.756 29.3622 145.407 29.2549 145.959 29.0555C146.511 28.8562 146.941 28.5802 147.247 28.2275C147.554 27.8749 147.707 27.4762 147.707 27.0315C147.707 26.3875 147.416 25.8892 146.833 25.5365C146.251 25.1685 145.453 24.9845 144.441 24.9845H142.371V23.7885H144.326C144.924 23.7885 145.453 23.7119 145.913 23.5585C146.373 23.4052 146.726 23.1829 146.971 22.8915C147.232 22.6002 147.362 22.2552 147.362 21.8565C147.362 21.4272 147.209 21.0592 146.902 20.7525C146.611 20.4459 146.205 20.2159 145.683 20.0625C145.162 19.9092 144.572 19.8325 143.912 19.8325C143.314 19.8479 142.693 19.9399 142.049 20.1085C141.405 20.2619 140.769 20.4995 140.14 20.8215L139.68 19.5565C140.386 19.1885 141.083 18.9125 141.773 18.7285C142.479 18.5292 143.184 18.4295 143.889 18.4295C144.855 18.3989 145.722 18.5139 146.488 18.7745C147.27 19.0352 147.891 19.4109 148.351 19.9015C148.811 20.3769 149.041 20.9519 149.041 21.6265C149.041 22.2245 148.857 22.7459 148.489 23.1905C148.121 23.6352 147.631 23.9802 147.017 24.2255C146.404 24.4709 145.706 24.5935 144.924 24.5935L144.993 24.1565C146.373 24.1565 147.447 24.4249 148.213 24.9615C148.995 25.4982 149.386 26.2265 149.386 27.1465C149.386 27.8672 149.149 28.5035 148.673 29.0555C148.198 29.5922 147.554 30.0139 146.741 30.3205C145.944 30.6272 145.047 30.7805 144.05 30.7805ZM153.094 30.6425V18.5675H154.727V28.1585L162.8 18.5675H164.249V30.6425H162.616V21.0285L154.566 30.6425H153.094ZM168.928 30.6425V18.5675H170.561V23.9035H178.174V18.5675H179.807V30.6425H178.174V25.3065H170.561V30.6425H168.928ZM184.656 35.2195C184.089 35.2195 183.544 35.1275 183.023 34.9435C182.517 34.7595 182.08 34.4835 181.712 34.1155L182.471 32.8965C182.778 33.1879 183.107 33.4102 183.46 33.5635C183.828 33.7322 184.234 33.8165 184.679 33.8165C185.216 33.8165 185.676 33.6632 186.059 33.3565C186.458 33.0652 186.833 32.5439 187.186 31.7925L187.968 30.0215L188.152 29.7685L193.12 18.5675H194.73L188.681 32.0915C188.344 32.8735 187.968 33.4945 187.554 33.9545C187.155 34.4145 186.718 34.7365 186.243 34.9205C185.768 35.1199 185.239 35.2195 184.656 35.2195ZM187.876 30.9875L182.31 18.5675H184.012L188.934 29.6535L187.876 30.9875Z" fill="#E6E6E6"/>
</svg>
