<svg width="31" height="31" viewBox="0 0 31 31" fill="none" xmlns="http://www.w3.org/2000/svg">
<rect x="2" y="4" width="26" height="24" fill="#E6E6E6"/>
<path d="M2.17 2.17C4.1061e-07 4.36067 0 7.86367 0 14.88V16.12C0 23.126 4.1061e-07 26.629 2.17 28.83C4.36067 31 7.86367 31 14.88 31H16.12C23.126 31 26.629 31 28.83 28.83C31 26.6393 31 23.1363 31 16.12V14.88C31 7.874 31 4.371 28.83 2.17C26.6393 4.1061e-07 23.1363 0 16.12 0H14.88C7.874 0 4.371 4.1061e-07 2.17 2.17ZM5.22867 9.43433H8.78333C8.897 15.345 11.501 17.8457 13.5677 18.3623V9.43433H16.9053V14.5287C18.941 14.3117 21.0903 11.9867 21.8137 9.424H25.141C24.8698 10.7506 24.3279 12.007 23.5491 13.1147C22.7704 14.2223 21.7715 15.1575 20.615 15.8617C21.9057 16.5038 23.0455 17.4124 23.9593 18.5274C24.873 19.6425 25.54 20.9386 25.916 22.3303H22.2477C21.4623 19.8813 19.499 17.98 16.9053 17.7217V22.3303H16.492C9.424 22.3303 5.394 17.4943 5.22867 9.43433Z" fill="#2E7AC0"/>
</svg>
