<svg width="299" height="43" viewBox="0 0 299 43" fill="none" xmlns="http://www.w3.org/2000/svg">
<rect width="298.16" height="42.4106" rx="13" fill="#0098C8"/>
<path d="M233.707 22.7071C234.098 22.3166 234.098 21.6834 233.707 21.2929L227.343 14.9289C226.953 14.5384 226.319 14.5384 225.929 14.9289C225.538 15.3195 225.538 15.9526 225.929 16.3431L231.586 22L225.929 27.6569C225.538 28.0474 225.538 28.6805 225.929 29.0711C226.319 29.4616 226.953 29.4616 227.343 29.0711L233.707 22.7071ZM208 23L233 23V21L208 21V23Z" fill="#E6E6E6"/>
<rect x="206" y="21" width="25" height="2" rx="1" fill="#E6E6E6"/>
<path d="M74.714 29V12.9H81.407C83.109 12.9 84.443 13.2527 85.409 13.958C86.3903 14.648 86.881 15.6677 86.881 17.017C86.881 18.351 86.4133 19.363 85.478 20.053C84.5427 20.7277 83.316 21.065 81.798 21.065L82.189 20.49C83.983 20.49 85.3477 20.8427 86.283 21.548C87.2183 22.2533 87.686 23.2883 87.686 24.653C87.686 26.033 87.1953 27.1063 86.214 27.873C85.248 28.6243 83.7913 29 81.844 29H74.714ZM76.393 27.643H81.844C83.2087 27.643 84.2437 27.39 84.949 26.884C85.6543 26.378 86.007 25.596 86.007 24.538C86.007 23.4953 85.6543 22.7287 84.949 22.238C84.2437 21.7473 83.2087 21.502 81.844 21.502H76.393V27.643ZM76.393 20.191H81.315C82.557 20.191 83.5077 19.9457 84.167 19.455C84.8417 18.949 85.179 18.2053 85.179 17.224C85.179 16.2427 84.8417 15.5067 84.167 15.016C83.5077 14.51 82.557 14.257 81.315 14.257H76.393V20.191ZM106.425 29L101.457 23.02L102.814 22.215L108.357 29H106.425ZM97.5701 29V16.925H99.2031V29H97.5701ZM98.6971 23.618V22.215H102.584V23.618H98.6971ZM102.952 23.135L101.434 22.905L106.241 16.925H108.012L102.952 23.135ZM115.476 29.115C114.31 29.115 113.26 28.8543 112.325 28.333C111.405 27.7963 110.676 27.068 110.14 26.148C109.603 25.2127 109.335 24.147 109.335 22.951C109.335 21.7397 109.603 20.674 110.14 19.754C110.676 18.834 111.405 18.1133 112.325 17.592C113.245 17.0707 114.295 16.81 115.476 16.81C116.672 16.81 117.73 17.0707 118.65 17.592C119.585 18.1133 120.313 18.834 120.835 19.754C121.371 20.674 121.64 21.7397 121.64 22.951C121.64 24.147 121.371 25.2127 120.835 26.148C120.313 27.068 119.585 27.7963 118.65 28.333C117.714 28.8543 116.656 29.115 115.476 29.115ZM115.476 27.666C116.35 27.666 117.124 27.4743 117.799 27.091C118.473 26.6923 119.002 26.1403 119.386 25.435C119.784 24.7143 119.984 23.8863 119.984 22.951C119.984 22.0003 119.784 21.1723 119.386 20.467C119.002 19.7617 118.473 19.2173 117.799 18.834C117.124 18.4353 116.357 18.236 115.499 18.236C114.64 18.236 113.873 18.4353 113.199 18.834C112.524 19.2173 111.987 19.7617 111.589 20.467C111.19 21.1723 110.991 22.0003 110.991 22.951C110.991 23.8863 111.19 24.7143 111.589 25.435C111.987 26.1403 112.524 26.6923 113.199 27.091C113.873 27.4743 114.632 27.666 115.476 27.666ZM131.363 29.115C130.32 29.115 129.377 28.8773 128.534 28.402C127.69 27.9113 127.016 27.2137 126.51 26.309C126.019 25.389 125.774 24.2697 125.774 22.951C125.774 21.6323 126.019 20.5207 126.51 19.616C127 18.696 127.667 17.9983 128.511 17.523C129.354 17.0477 130.305 16.81 131.363 16.81C132.513 16.81 133.54 17.0707 134.445 17.592C135.365 18.098 136.085 18.8187 136.607 19.754C137.128 20.674 137.389 21.7397 137.389 22.951C137.389 24.1777 137.128 25.251 136.607 26.171C136.085 27.091 135.365 27.8117 134.445 28.333C133.54 28.8543 132.513 29.115 131.363 29.115ZM125.13 33.462V16.925H126.694V20.559L126.533 22.974L126.763 25.412V33.462H125.13ZM131.248 27.666C132.106 27.666 132.873 27.4743 133.548 27.091C134.222 26.6923 134.759 26.1403 135.158 25.435C135.556 24.7143 135.756 23.8863 135.756 22.951C135.756 22.0157 135.556 21.1953 135.158 20.49C134.759 19.7847 134.222 19.2327 133.548 18.834C132.873 18.4353 132.106 18.236 131.248 18.236C130.389 18.236 129.615 18.4353 128.925 18.834C128.25 19.2327 127.713 19.7847 127.315 20.49C126.931 21.1953 126.74 22.0157 126.74 22.951C126.74 23.8863 126.931 24.7143 127.315 25.435C127.713 26.1403 128.25 26.6923 128.925 27.091C129.615 27.4743 130.389 27.666 131.248 27.666ZM144.05 29.138C143.176 29.138 142.31 29.0153 141.451 28.77C140.593 28.5247 139.834 28.149 139.174 27.643L139.703 26.424C140.286 26.8533 140.961 27.183 141.727 27.413C142.494 27.6277 143.253 27.735 144.004 27.735C144.756 27.7197 145.407 27.6123 145.959 27.413C146.511 27.2137 146.941 26.9377 147.247 26.585C147.554 26.2323 147.707 25.8337 147.707 25.389C147.707 24.745 147.416 24.2467 146.833 23.894C146.251 23.526 145.453 23.342 144.441 23.342H142.371V22.146H144.326C144.924 22.146 145.453 22.0693 145.913 21.916C146.373 21.7627 146.726 21.5403 146.971 21.249C147.232 20.9577 147.362 20.6127 147.362 20.214C147.362 19.7847 147.209 19.4167 146.902 19.11C146.611 18.8033 146.205 18.5733 145.683 18.42C145.162 18.2667 144.572 18.19 143.912 18.19C143.314 18.2053 142.693 18.2973 142.049 18.466C141.405 18.6193 140.769 18.857 140.14 19.179L139.68 17.914C140.386 17.546 141.083 17.27 141.773 17.086C142.479 16.8867 143.184 16.787 143.889 16.787C144.855 16.7563 145.722 16.8713 146.488 17.132C147.27 17.3927 147.891 17.7683 148.351 18.259C148.811 18.7343 149.041 19.3093 149.041 19.984C149.041 20.582 148.857 21.1033 148.489 21.548C148.121 21.9927 147.631 22.3377 147.017 22.583C146.404 22.8283 145.706 22.951 144.924 22.951L144.993 22.514C146.373 22.514 147.447 22.7823 148.213 23.319C148.995 23.8557 149.386 24.584 149.386 25.504C149.386 26.2247 149.149 26.861 148.673 27.413C148.198 27.9497 147.554 28.3713 146.741 28.678C145.944 28.9847 145.047 29.138 144.05 29.138ZM153.094 29V16.925H154.727V26.516L162.8 16.925H164.249V29H162.616V19.386L154.566 29H153.094ZM168.928 29V16.925H170.561V22.261H178.174V16.925H179.807V29H178.174V23.664H170.561V29H168.928ZM189.624 29.115C188.367 29.115 187.263 28.8543 186.312 28.333C185.361 27.7963 184.618 27.068 184.081 26.148C183.544 25.2127 183.276 24.147 183.276 22.951C183.276 21.755 183.529 20.697 184.035 19.777C184.556 18.857 185.262 18.1363 186.151 17.615C187.056 17.0783 188.068 16.81 189.187 16.81C190.322 16.81 191.326 17.0707 192.2 17.592C193.089 18.098 193.787 18.8187 194.293 19.754C194.799 20.674 195.052 21.7397 195.052 22.951C195.052 23.0277 195.044 23.112 195.029 23.204C195.029 23.2807 195.029 23.365 195.029 23.457H184.518V22.238H194.155L193.511 22.721C193.511 21.847 193.319 21.0727 192.936 20.398C192.568 19.708 192.062 19.1713 191.418 18.788C190.774 18.4047 190.03 18.213 189.187 18.213C188.359 18.213 187.615 18.4047 186.956 18.788C186.297 19.1713 185.783 19.708 185.415 20.398C185.047 21.088 184.863 21.8777 184.863 22.767V23.02C184.863 23.94 185.062 24.7527 185.461 25.458C185.875 26.148 186.442 26.6923 187.163 27.091C187.899 27.4743 188.735 27.666 189.67 27.666C190.406 27.666 191.088 27.5357 191.717 27.275C192.361 27.0143 192.913 26.6157 193.373 26.079L194.293 27.137C193.756 27.781 193.082 28.2717 192.269 28.609C191.472 28.9463 190.59 29.115 189.624 29.115Z" fill="#E6E6E6"/>
</svg>
