<svg width="299" height="43" viewBox="0 0 299 43" fill="none" xmlns="http://www.w3.org/2000/svg">
<rect width="298.16" height="42.4106" rx="13" fill="#00C844"/>
<path d="M223.922 28.8456C222.781 28.8456 221.866 29.7607 221.866 30.9019C221.866 31.4473 222.082 31.9703 222.468 32.3559C222.853 32.7415 223.377 32.9582 223.922 32.9582C224.467 32.9582 224.99 32.7415 225.376 32.3559C225.761 31.9703 225.978 31.4473 225.978 30.9019C225.978 30.3566 225.761 29.8335 225.376 29.4479C224.99 29.0623 224.467 28.8456 223.922 28.8456ZM207.472 12.3954V14.4517H209.528L213.229 22.2553L211.831 24.7742C211.677 25.0621 211.584 25.4014 211.584 25.7612C211.584 26.3066 211.801 26.8296 212.186 27.2152C212.572 27.6009 213.095 27.8175 213.641 27.8175H225.978V25.7612H214.072C214.004 25.7612 213.939 25.7341 213.891 25.6859C213.842 25.6377 213.815 25.5724 213.815 25.5042C213.815 25.4528 213.826 25.4117 213.846 25.3808L214.771 23.705H222.431C223.202 23.705 223.881 23.2731 224.23 22.646L227.911 15.9939C227.983 15.8294 228.034 15.6546 228.034 15.4799C228.034 15.2072 227.926 14.9457 227.733 14.7529C227.54 14.56 227.279 14.4517 227.006 14.4517H211.8L210.834 12.3954M213.641 28.8456C212.499 28.8456 211.584 29.7607 211.584 30.9019C211.584 31.4473 211.801 31.9703 212.186 32.3559C212.572 32.7415 213.095 32.9582 213.641 32.9582C214.186 32.9582 214.709 32.7415 215.095 32.3559C215.48 31.9703 215.697 31.4473 215.697 30.9019C215.697 30.3566 215.48 29.8335 215.095 29.4479C214.709 29.0623 214.186 28.8456 213.641 28.8456Z" fill="#E6E6E6"/>
<path d="M74.4367 28.6844V12.5844H81.1297C82.8317 12.5844 84.1657 12.9371 85.1317 13.6424C86.113 14.3324 86.6037 15.3521 86.6037 16.7014C86.6037 18.0354 86.136 19.0474 85.2007 19.7374C84.2653 20.4121 83.0387 20.7494 81.5207 20.7494L81.9117 20.1744C83.7057 20.1744 85.0703 20.5271 86.0057 21.2324C86.941 21.9378 87.4087 22.9728 87.4087 24.3374C87.4087 25.7174 86.918 26.7908 85.9367 27.5574C84.9707 28.3088 83.514 28.6844 81.5667 28.6844H74.4367ZM76.1157 27.3274H81.5667C82.9313 27.3274 83.9663 27.0744 84.6717 26.5684C85.377 26.0624 85.7297 25.2804 85.7297 24.2224C85.7297 23.1798 85.377 22.4131 84.6717 21.9224C83.9663 21.4318 82.9313 21.1864 81.5667 21.1864H76.1157V27.3274ZM76.1157 19.8754H81.0377C82.2797 19.8754 83.2303 19.6301 83.8897 19.1394C84.5643 18.6334 84.9017 17.8898 84.9017 16.9084C84.9017 15.9271 84.5643 15.1911 83.8897 14.7004C83.2303 14.1944 82.2797 13.9414 81.0377 13.9414H76.1157V19.8754ZM106.148 28.6844L101.18 22.7044L102.537 21.8994L108.08 28.6844H106.148ZM97.2927 28.6844V16.6094H98.9257V28.6844H97.2927ZM98.4197 23.3024V21.8994H102.307V23.3024H98.4197ZM102.675 22.8194L101.157 22.5894L105.964 16.6094H107.735L102.675 22.8194ZM115.198 28.7994C114.033 28.7994 112.983 28.5388 112.047 28.0174C111.127 27.4808 110.399 26.7524 109.862 25.8324C109.326 24.8971 109.057 23.8314 109.057 22.6354C109.057 21.4241 109.326 20.3584 109.862 19.4384C110.399 18.5184 111.127 17.7978 112.047 17.2764C112.967 16.7551 114.018 16.4944 115.198 16.4944C116.394 16.4944 117.452 16.7551 118.372 17.2764C119.308 17.7978 120.036 18.5184 120.557 19.4384C121.094 20.3584 121.362 21.4241 121.362 22.6354C121.362 23.8314 121.094 24.8971 120.557 25.8324C120.036 26.7524 119.308 27.4808 118.372 28.0174C117.437 28.5388 116.379 28.7994 115.198 28.7994ZM115.198 27.3504C116.072 27.3504 116.847 27.1588 117.521 26.7754C118.196 26.3768 118.725 25.8248 119.108 25.1194C119.507 24.3988 119.706 23.5708 119.706 22.6354C119.706 21.6848 119.507 20.8568 119.108 20.1514C118.725 19.4461 118.196 18.9018 117.521 18.5184C116.847 18.1198 116.08 17.9204 115.221 17.9204C114.363 17.9204 113.596 18.1198 112.921 18.5184C112.247 18.9018 111.71 19.4461 111.311 20.1514C110.913 20.8568 110.713 21.6848 110.713 22.6354C110.713 23.5708 110.913 24.3988 111.311 25.1194C111.71 25.8248 112.247 26.3768 112.921 26.7754C113.596 27.1588 114.355 27.3504 115.198 27.3504ZM131.085 28.7994C130.043 28.7994 129.1 28.5618 128.256 28.0864C127.413 27.5958 126.738 26.8981 126.232 25.9934C125.742 25.0734 125.496 23.9541 125.496 22.6354C125.496 21.3168 125.742 20.2051 126.232 19.3004C126.723 18.3804 127.39 17.6828 128.233 17.2074C129.077 16.7321 130.027 16.4944 131.085 16.4944C132.235 16.4944 133.263 16.7551 134.167 17.2764C135.087 17.7824 135.808 18.5031 136.329 19.4384C136.851 20.3584 137.111 21.4241 137.111 22.6354C137.111 23.8621 136.851 24.9354 136.329 25.8554C135.808 26.7754 135.087 27.4961 134.167 28.0174C133.263 28.5388 132.235 28.7994 131.085 28.7994ZM124.852 33.1464V16.6094H126.416V20.2434L126.255 22.6584L126.485 25.0964V33.1464H124.852ZM130.97 27.3504C131.829 27.3504 132.596 27.1588 133.27 26.7754C133.945 26.3768 134.482 25.8248 134.88 25.1194C135.279 24.3988 135.478 23.5708 135.478 22.6354C135.478 21.7001 135.279 20.8798 134.88 20.1744C134.482 19.4691 133.945 18.9171 133.27 18.5184C132.596 18.1198 131.829 17.9204 130.97 17.9204C130.112 17.9204 129.337 18.1198 128.647 18.5184C127.973 18.9171 127.436 19.4691 127.037 20.1744C126.654 20.8798 126.462 21.7001 126.462 22.6354C126.462 23.5708 126.654 24.3988 127.037 25.1194C127.436 25.8248 127.973 26.3768 128.647 26.7754C129.337 27.1588 130.112 27.3504 130.97 27.3504ZM143.773 28.8224C142.899 28.8224 142.033 28.6998 141.174 28.4544C140.315 28.2091 139.556 27.8334 138.897 27.3274L139.426 26.1084C140.009 26.5378 140.683 26.8674 141.45 27.0974C142.217 27.3121 142.976 27.4194 143.727 27.4194C144.478 27.4041 145.13 27.2968 145.682 27.0974C146.234 26.8981 146.663 26.6221 146.97 26.2694C147.277 25.9168 147.43 25.5181 147.43 25.0734C147.43 24.4294 147.139 23.9311 146.556 23.5784C145.973 23.2104 145.176 23.0264 144.164 23.0264H142.094V21.8304H144.049C144.647 21.8304 145.176 21.7538 145.636 21.6004C146.096 21.4471 146.449 21.2248 146.694 20.9334C146.955 20.6421 147.085 20.2971 147.085 19.8984C147.085 19.4691 146.932 19.1011 146.625 18.7944C146.334 18.4878 145.927 18.2578 145.406 18.1044C144.885 17.9511 144.294 17.8744 143.635 17.8744C143.037 17.8898 142.416 17.9818 141.772 18.1504C141.128 18.3038 140.492 18.5414 139.863 18.8634L139.403 17.5984C140.108 17.2304 140.806 16.9544 141.496 16.7704C142.201 16.5711 142.907 16.4714 143.612 16.4714C144.578 16.4408 145.444 16.5558 146.211 16.8164C146.993 17.0771 147.614 17.4528 148.074 17.9434C148.534 18.4188 148.764 18.9938 148.764 19.6684C148.764 20.2664 148.58 20.7878 148.212 21.2324C147.844 21.6771 147.353 22.0221 146.74 22.2674C146.127 22.5128 145.429 22.6354 144.647 22.6354L144.716 22.1984C146.096 22.1984 147.169 22.4668 147.936 23.0034C148.718 23.5401 149.109 24.2684 149.109 25.1884C149.109 25.9091 148.871 26.5454 148.396 27.0974C147.921 27.6341 147.277 28.0558 146.464 28.3624C145.667 28.6691 144.77 28.8224 143.773 28.8224ZM152.816 28.6844V16.6094H154.449V26.2004L162.522 16.6094H163.971V28.6844H162.338V19.0704L154.288 28.6844H152.816ZM168.651 28.6844V16.6094H170.284V21.9454H177.897V16.6094H179.53V28.6844H177.897V23.3484H170.284V28.6844H168.651ZM184.379 33.2614C183.811 33.2614 183.267 33.1694 182.746 32.9854C182.24 32.8014 181.803 32.5254 181.435 32.1574L182.194 30.9384C182.5 31.2298 182.83 31.4521 183.183 31.6054C183.551 31.7741 183.957 31.8584 184.402 31.8584C184.938 31.8584 185.398 31.7051 185.782 31.3984C186.18 31.1071 186.556 30.5858 186.909 29.8344L187.691 28.0634L187.875 27.8104L192.843 16.6094H194.453L188.404 30.1334C188.066 30.9154 187.691 31.5364 187.277 31.9964C186.878 32.4564 186.441 32.7784 185.966 32.9624C185.49 33.1618 184.961 33.2614 184.379 33.2614ZM187.599 29.0294L182.033 16.6094H183.735L188.657 27.6954L187.599 29.0294Z" fill="#E6E6E6"/>
</svg>
